<svg xmlns="http://www.w3.org/2000/svg" xmlns:xlink="http://www.w3.org/1999/xlink" width="1024" zoomAndPan="magnify" viewBox="0 0 768 576" height="768" preserveAspectRatio="xMidYMid meet" version="1.0"><defs><filter x="0%" y="0%" width="100%" height="100%" id="67adb569e6"><feColorMatrix values="0 0 0 0 1 0 0 0 0 1 0 0 0 0 1 0 0 0 1 0" color-interpolation-filters="sRGB"/></filter><g/><mask id="5f13a3193d"><g filter="url(#67adb569e6)"><rect x="-76.8" width="921.6" fill="#000000" y="-57.6" height="691.2" fill-opacity="0.7"/></g></mask><clipPath id="63a844e551"><path d="M 37 0.078125 L 44 0.078125 L 44 10 L 37 10 Z M 37 0.078125 " clip-rule="nonzero"/></clipPath><clipPath id="feb05746a7"><path d="M 65 0.078125 L 69 0.078125 L 69 10 L 65 10 Z M 65 0.078125 " clip-rule="nonzero"/></clipPath><clipPath id="36ca2476c3"><path d="M 73 0.078125 L 80 0.078125 L 80 10 L 73 10 Z M 73 0.078125 " clip-rule="nonzero"/></clipPath><clipPath id="e9d860ecba"><path d="M 134 0.078125 L 137 0.078125 L 137 10 L 134 10 Z M 134 0.078125 " clip-rule="nonzero"/></clipPath><clipPath id="16bf2eebca"><rect x="0" width="460" y="0" height="329"/></clipPath></defs><g mask="url(#5f13a3193d)"><g transform="matrix(1, 0, 0, 1, 124, 112)"><g clip-path="url(#16bf2eebca)"><path fill="#6ce5e8" d="M 205.566406 32.375 C 207.761719 32.375 209.957031 32.429688 212.148438 32.535156 C 214.34375 32.644531 216.53125 32.804688 218.71875 33.019531 C 220.902344 33.238281 223.082031 33.503906 225.253906 33.828125 C 227.425781 34.148438 229.585938 34.523438 231.742188 34.953125 C 233.894531 35.382812 236.035156 35.863281 238.167969 36.394531 C 240.296875 36.929688 242.410156 37.515625 244.511719 38.152344 C 246.613281 38.789062 248.699219 39.480469 250.765625 40.21875 C 252.832031 40.957031 254.882812 41.75 256.910156 42.589844 C 258.9375 43.429688 260.945312 44.316406 262.929688 45.257812 C 264.914062 46.195312 266.875 47.183594 268.8125 48.21875 C 270.75 49.253906 272.660156 50.335938 274.542969 51.464844 C 276.425781 52.59375 278.28125 53.765625 280.105469 54.988281 C 281.933594 56.207031 283.726562 57.472656 285.492188 58.777344 C 287.253906 60.085938 288.984375 61.4375 290.683594 62.832031 C 292.378906 64.222656 294.042969 65.65625 295.667969 67.132812 C 297.296875 68.605469 298.886719 70.121094 300.4375 71.671875 C 301.992188 73.226562 303.503906 74.816406 304.980469 76.441406 C 306.453125 78.070312 307.886719 79.730469 309.28125 81.429688 C 310.671875 83.125 312.023438 84.855469 313.332031 86.621094 C 314.640625 88.382812 315.902344 90.179688 317.125 92.003906 C 318.34375 93.828125 319.515625 95.683594 320.644531 97.566406 C 321.773438 99.449219 322.855469 101.359375 323.890625 103.296875 C 324.925781 105.234375 325.914062 107.195312 326.851562 109.179688 C 327.792969 111.164062 328.679688 113.171875 329.523438 115.199219 C 330.363281 117.230469 331.152344 119.277344 331.890625 121.34375 C 332.632812 123.410156 333.320312 125.496094 333.957031 127.597656 C 334.59375 129.699219 335.179688 131.8125 335.714844 133.945312 C 336.246094 136.074219 336.726562 138.214844 337.15625 140.367188 C 337.585938 142.523438 337.960938 144.683594 338.28125 146.859375 C 338.605469 149.03125 338.875 151.207031 339.089844 153.394531 C 339.304688 155.578125 339.464844 157.769531 339.574219 159.960938 C 339.679688 162.152344 339.734375 164.347656 339.734375 166.542969 C 339.734375 168.738281 339.679688 170.933594 339.574219 173.128906 C 339.464844 175.320312 339.304688 177.507812 339.089844 179.695312 C 338.875 181.878906 338.605469 184.058594 338.28125 186.230469 C 337.960938 188.402344 337.585938 190.566406 337.15625 192.71875 C 336.726562 194.871094 336.246094 197.015625 335.714844 199.144531 C 335.179688 201.273438 334.59375 203.390625 333.957031 205.492188 C 333.320312 207.59375 332.632812 209.675781 331.890625 211.746094 C 331.152344 213.8125 330.363281 215.859375 329.523438 217.886719 C 328.679688 219.917969 327.792969 221.921875 326.851562 223.910156 C 325.914062 225.894531 324.925781 227.855469 323.890625 229.789062 C 322.855469 231.726562 321.773438 233.636719 320.644531 235.519531 C 319.515625 237.402344 318.34375 239.257812 317.125 241.085938 C 315.902344 242.910156 314.640625 244.703125 313.332031 246.46875 C 312.023438 248.230469 310.671875 249.960938 309.28125 251.660156 C 307.886719 253.355469 306.453125 255.019531 304.980469 256.644531 C 303.503906 258.273438 301.992188 259.863281 300.4375 261.414062 C 298.886719 262.96875 297.296875 264.480469 295.667969 265.957031 C 294.042969 267.429688 292.378906 268.863281 290.683594 270.257812 C 288.984375 271.652344 287.253906 273 285.492188 274.308594 C 283.726562 275.617188 281.933594 276.882812 280.105469 278.101562 C 278.28125 279.320312 276.425781 280.496094 274.542969 281.625 C 272.660156 282.753906 270.75 283.835938 268.8125 284.871094 C 266.875 285.90625 264.914062 286.890625 262.929688 287.832031 C 260.945312 288.769531 258.9375 289.660156 256.910156 290.5 C 254.882812 291.339844 252.832031 292.128906 250.765625 292.871094 C 248.699219 293.609375 246.613281 294.296875 244.511719 294.9375 C 242.410156 295.574219 240.296875 296.160156 238.167969 296.691406 C 236.035156 297.226562 233.894531 297.707031 231.742188 298.136719 C 229.585938 298.5625 227.425781 298.9375 225.253906 299.261719 C 223.082031 299.582031 220.902344 299.851562 218.71875 300.066406 C 216.53125 300.28125 214.34375 300.445312 212.148438 300.550781 C 209.957031 300.660156 207.761719 300.710938 205.566406 300.710938 Z M 205.566406 32.375 " fill-opacity="1" fill-rule="nonzero"/><path fill="#41b8d5" d="M 205.566406 300.710938 C 198.527344 300.710938 191.53125 300.164062 184.578125 299.0625 C 177.625 297.960938 170.800781 296.320312 164.105469 294.144531 C 157.410156 291.972656 150.925781 289.285156 144.65625 286.089844 C 138.382812 282.894531 132.398438 279.226562 126.703125 275.089844 L 205.566406 166.542969 Z M 205.566406 300.710938 " fill-opacity="1" fill-rule="nonzero"/><path fill="#2d8bba" d="M 126.703125 275.089844 C 123.859375 273.023438 121.101562 270.847656 118.429688 268.566406 C 115.757812 266.285156 113.179688 263.902344 110.695312 261.414062 C 108.210938 258.929688 105.824219 256.351562 103.542969 253.679688 C 101.261719 251.007812 99.085938 248.25 97.019531 245.40625 C 94.957031 242.5625 93.003906 239.644531 91.167969 236.648438 C 89.332031 233.652344 87.617188 230.585938 86.019531 227.457031 C 84.425781 224.324219 82.957031 221.136719 81.609375 217.886719 C 80.265625 214.640625 79.050781 211.347656 77.964844 208.003906 C 76.878906 204.664062 75.925781 201.28125 75.105469 197.863281 C 74.285156 194.449219 73.597656 191.003906 73.050781 187.53125 C 72.5 184.0625 72.085938 180.574219 71.8125 177.070312 C 71.535156 173.566406 71.398438 170.058594 71.398438 166.542969 C 71.398438 163.03125 71.535156 159.519531 71.8125 156.015625 C 72.085938 152.515625 72.5 149.027344 73.050781 145.554688 C 73.597656 142.085938 74.285156 138.640625 75.105469 135.222656 C 75.925781 131.804688 76.878906 128.425781 77.964844 125.082031 L 205.566406 166.542969 Z M 126.703125 275.089844 " fill-opacity="1" fill-rule="nonzero"/><path fill="#2f5f98" d="M 77.964844 125.082031 C 79.050781 121.742188 80.265625 118.449219 81.609375 115.199219 C 82.953125 111.953125 84.425781 108.765625 86.019531 105.632812 C 87.617188 102.503906 89.332031 99.441406 91.167969 96.441406 C 93.003906 93.445312 94.953125 90.527344 97.019531 87.683594 C 99.085938 84.839844 101.257812 82.082031 103.539062 79.410156 C 105.824219 76.738281 108.207031 74.160156 110.691406 71.675781 C 113.175781 69.191406 115.753906 66.808594 118.425781 64.523438 C 121.097656 62.242188 123.855469 60.070312 126.699219 58.003906 C 129.542969 55.9375 132.460938 53.988281 135.457031 52.148438 C 138.453125 50.3125 141.515625 48.597656 144.648438 47.003906 C 147.777344 45.40625 150.96875 43.9375 154.214844 42.59375 C 157.460938 41.246094 160.753906 40.03125 164.097656 38.945312 C 167.4375 37.859375 170.816406 36.90625 174.234375 36.085938 C 177.652344 35.265625 181.09375 34.578125 184.566406 34.027344 C 188.035156 33.480469 191.523438 33.066406 195.027344 32.789062 C 198.53125 32.515625 202.039062 32.375 205.550781 32.375 L 205.566406 166.542969 Z M 77.964844 125.082031 " fill-opacity="1" fill-rule="nonzero"/><g fill="#d9d9d9" fill-opacity="1"><g transform="translate(347.115826, 164.192934)"><g><path d="M 3.90625 -8.015625 C 4.8125 -8.015625 5.515625 -7.785156 6.015625 -7.328125 C 6.523438 -6.878906 6.78125 -6.226562 6.78125 -5.375 C 6.78125 -3.5625 5.851562 -2.65625 4 -2.65625 L 2.765625 -2.65625 L 2.765625 0 L 0.6875 0 L 0.6875 -8.015625 Z M 2.765625 -4.328125 L 3.203125 -4.328125 C 3.617188 -4.328125 3.910156 -4.359375 4.078125 -4.421875 C 4.242188 -4.484375 4.375 -4.582031 4.46875 -4.71875 C 4.5625 -4.863281 4.609375 -5.0625 4.609375 -5.3125 C 4.609375 -5.582031 4.5625 -5.785156 4.46875 -5.921875 C 4.375 -6.066406 4.242188 -6.171875 4.078125 -6.234375 C 3.910156 -6.296875 3.566406 -6.328125 3.046875 -6.328125 L 2.765625 -6.328125 Z M 2.765625 -4.328125 "/></g></g></g><g fill="#d9d9d9" fill-opacity="1"><g transform="translate(354.072071, 164.192934)"><g><path d="M 2.546875 -5.453125 L 2.546875 -2.5 C 2.546875 -2.09375 2.617188 -1.800781 2.765625 -1.625 C 2.921875 -1.445312 3.164062 -1.359375 3.5 -1.359375 C 3.863281 -1.359375 4.113281 -1.453125 4.25 -1.640625 C 4.394531 -1.835938 4.46875 -2.125 4.46875 -2.5 L 4.46875 -5.453125 L 6.40625 -5.453125 L 6.40625 -2.140625 C 6.40625 -0.585938 5.4375 0.1875 3.5 0.1875 C 1.570312 0.1875 0.609375 -0.585938 0.609375 -2.140625 L 0.609375 -5.453125 Z M 2.546875 -5.453125 "/></g></g></g><g fill="#d9d9d9" fill-opacity="1"><g transform="translate(361.070803, 164.192934)"><g><path d="M 2.5 -8.8125 L 2.5 -4.921875 C 2.707031 -5.148438 2.960938 -5.320312 3.265625 -5.4375 C 3.566406 -5.5625 3.878906 -5.625 4.203125 -5.625 C 4.972656 -5.625 5.617188 -5.347656 6.140625 -4.796875 C 6.660156 -4.242188 6.921875 -3.554688 6.921875 -2.734375 C 6.921875 -1.898438 6.65625 -1.203125 6.125 -0.640625 C 5.601562 -0.0859375 4.957031 0.1875 4.1875 0.1875 C 3.820312 0.1875 3.492188 0.117188 3.203125 -0.015625 C 2.910156 -0.160156 2.6875 -0.359375 2.53125 -0.609375 L 2.5 -0.609375 L 2.5 0 L 0.578125 0 L 0.578125 -8.8125 Z M 3.6875 -1.5 C 4.050781 -1.5 4.347656 -1.601562 4.578125 -1.8125 C 4.816406 -2.03125 4.9375 -2.332031 4.9375 -2.71875 C 4.9375 -3.082031 4.820312 -3.378906 4.59375 -3.609375 C 4.363281 -3.835938 4.054688 -3.953125 3.671875 -3.953125 C 3.316406 -3.953125 3.019531 -3.835938 2.78125 -3.609375 C 2.550781 -3.378906 2.4375 -3.082031 2.4375 -2.71875 C 2.4375 -2.351562 2.550781 -2.054688 2.78125 -1.828125 C 3.019531 -1.609375 3.320312 -1.5 3.6875 -1.5 Z M 3.6875 -1.5 "/></g></g></g><g fill="#d9d9d9" fill-opacity="1"><g transform="translate(368.313806, 164.192934)"><g><path d="M 2.6875 -7.546875 C 2.6875 -7.242188 2.578125 -6.984375 2.359375 -6.765625 C 2.148438 -6.554688 1.898438 -6.453125 1.609375 -6.453125 C 1.304688 -6.453125 1.046875 -6.5625 0.828125 -6.78125 C 0.617188 -7 0.515625 -7.253906 0.515625 -7.546875 C 0.515625 -7.859375 0.625 -8.113281 0.84375 -8.3125 C 1.0625 -8.519531 1.316406 -8.625 1.609375 -8.625 C 1.898438 -8.625 2.148438 -8.519531 2.359375 -8.3125 C 2.578125 -8.101562 2.6875 -7.847656 2.6875 -7.546875 Z M 2.578125 -5.453125 L 2.578125 0 L 0.640625 0 L 0.640625 -5.453125 Z M 2.578125 -5.453125 "/></g></g></g><g fill="#d9d9d9" fill-opacity="1"><g transform="translate(371.521119, 164.192934)"><g><path d="M 4.5625 -3.671875 C 4.207031 -3.929688 3.875 -4.0625 3.5625 -4.0625 C 3.1875 -4.050781 2.875 -3.921875 2.625 -3.671875 C 2.375 -3.421875 2.242188 -3.109375 2.234375 -2.734375 C 2.234375 -2.328125 2.359375 -2 2.609375 -1.75 C 2.867188 -1.507812 3.203125 -1.390625 3.609375 -1.390625 C 3.984375 -1.398438 4.300781 -1.523438 4.5625 -1.765625 L 4.5625 -0.125 C 4.144531 0.0820312 3.691406 0.1875 3.203125 0.1875 C 2.367188 0.164062 1.664062 -0.109375 1.09375 -0.640625 C 0.53125 -1.179688 0.25 -1.859375 0.25 -2.671875 C 0.25 -3.535156 0.535156 -4.242188 1.109375 -4.796875 C 1.691406 -5.347656 2.421875 -5.625 3.296875 -5.625 C 3.660156 -5.601562 3.941406 -5.554688 4.140625 -5.484375 C 4.335938 -5.421875 4.476562 -5.363281 4.5625 -5.3125 Z M 4.5625 -3.671875 "/></g></g></g><g fill="#d9d9d9" fill-opacity="1"><g transform="translate(376.650696, 164.192934)"><g/></g></g><g fill="#d9d9d9" fill-opacity="1"><g transform="translate(379.97478, 164.192934)"><g><path d="M 5.59375 -8.015625 L 5.59375 -6.25 L 3.875 -6.25 L 3.875 0 L 1.78125 0 L 1.78125 -6.25 L 0.0625 -6.25 L 0.0625 -8.015625 Z M 5.59375 -8.015625 "/></g></g></g><g fill="#d9d9d9" fill-opacity="1"><g transform="translate(384.998063, 164.192934)"><g><path d="M 6.796875 -2.71875 C 6.796875 -1.863281 6.488281 -1.164062 5.875 -0.625 C 5.269531 -0.0820312 4.484375 0.1875 3.515625 0.1875 C 2.554688 0.1875 1.769531 -0.078125 1.15625 -0.609375 C 0.539062 -1.148438 0.234375 -1.851562 0.234375 -2.71875 C 0.234375 -3.570312 0.539062 -4.269531 1.15625 -4.8125 C 1.769531 -5.351562 2.554688 -5.625 3.515625 -5.625 C 4.472656 -5.625 5.257812 -5.351562 5.875 -4.8125 C 6.488281 -4.28125 6.796875 -3.582031 6.796875 -2.71875 Z M 3.515625 -1.5 C 3.898438 -1.5 4.203125 -1.609375 4.421875 -1.828125 C 4.648438 -2.054688 4.765625 -2.351562 4.765625 -2.71875 C 4.765625 -3.0625 4.648438 -3.351562 4.421875 -3.59375 C 4.191406 -3.832031 3.882812 -3.953125 3.5 -3.953125 C 3.144531 -3.953125 2.851562 -3.835938 2.625 -3.609375 C 2.394531 -3.378906 2.28125 -3.082031 2.28125 -2.71875 C 2.28125 -2.351562 2.394531 -2.054688 2.625 -1.828125 C 2.851562 -1.609375 3.148438 -1.5 3.515625 -1.5 Z M 3.515625 -1.5 "/></g></g></g><g fill="#d9d9d9" fill-opacity="1"><g transform="translate(392.028656, 164.192934)"><g><path d="M 2.578125 -8.8125 L 2.578125 -3.484375 L 4.578125 -5.453125 L 7.21875 -5.453125 L 4.5 -2.9375 L 7.390625 0 L 4.6875 0 L 2.578125 -2.21875 L 2.578125 0 L 0.640625 0 L 0.640625 -8.8125 Z M 2.578125 -8.8125 "/></g></g></g><g fill="#d9d9d9" fill-opacity="1"><g transform="translate(399.144189, 164.192934)"><g><path d="M 2.171875 -2.40625 C 2.171875 -1.59375 2.570312 -1.1875 3.375 -1.1875 C 3.789062 -1.1875 4.097656 -1.351562 4.296875 -1.6875 L 6.15625 -1.6875 C 6.03125 -1.125 5.71875 -0.671875 5.21875 -0.328125 C 4.71875 0.015625 4.101562 0.1875 3.375 0.1875 C 2.414062 0.1875 1.648438 -0.078125 1.078125 -0.609375 C 0.515625 -1.140625 0.234375 -1.84375 0.234375 -2.71875 C 0.234375 -3.601562 0.503906 -4.304688 1.046875 -4.828125 C 1.597656 -5.359375 2.332031 -5.625 3.25 -5.625 C 4.1875 -5.625 4.914062 -5.351562 5.4375 -4.8125 C 5.96875 -4.269531 6.234375 -3.519531 6.234375 -2.5625 L 6.234375 -2.40625 Z M 4.4375 -3.515625 C 4.382812 -3.785156 4.253906 -3.992188 4.046875 -4.140625 C 3.835938 -4.296875 3.601562 -4.375 3.34375 -4.375 C 3.050781 -4.375 2.800781 -4.300781 2.59375 -4.15625 C 2.382812 -4.007812 2.253906 -3.796875 2.203125 -3.515625 Z M 4.4375 -3.515625 "/></g></g></g><g fill="#d9d9d9" fill-opacity="1"><g transform="translate(405.622535, 164.192934)"><g><path d="M 6.390625 0 L 4.453125 0 L 4.453125 -3 C 4.460938 -3.726562 4.171875 -4.09375 3.578125 -4.09375 C 2.921875 -4.09375 2.585938 -3.679688 2.578125 -2.859375 L 2.578125 0 L 0.640625 0 L 0.640625 -5.453125 L 2.578125 -5.453125 L 2.578125 -4.75 L 2.59375 -4.75 C 2.800781 -5.070312 3.046875 -5.296875 3.328125 -5.421875 C 3.609375 -5.554688 3.941406 -5.625 4.328125 -5.625 C 5.035156 -5.625 5.554688 -5.425781 5.890625 -5.03125 C 6.222656 -4.632812 6.390625 -4.09375 6.390625 -3.40625 Z M 6.390625 0 "/></g></g></g><g fill="#d9d9d9" fill-opacity="1"><g transform="translate(412.642508, 164.192934)"><g/></g></g><g fill="#d9d9d9" fill-opacity="1"><g transform="translate(416.285246, 164.192934)"><g><path d="M 3.828125 -8.015625 C 4.671875 -8.015625 5.335938 -7.796875 5.828125 -7.359375 C 6.328125 -6.929688 6.578125 -6.328125 6.578125 -5.546875 C 6.578125 -4.960938 6.421875 -4.460938 6.109375 -4.046875 C 5.796875 -3.640625 5.367188 -3.382812 4.828125 -3.28125 L 7.34375 0 L 4.75 0 L 2.78125 -3.078125 L 2.765625 -3.078125 L 2.765625 0 L 0.6875 0 L 0.6875 -8.015625 Z M 2.765625 -4.421875 L 2.9375 -4.421875 C 3.445312 -4.421875 3.816406 -4.5 4.046875 -4.65625 C 4.285156 -4.820312 4.40625 -5.078125 4.40625 -5.421875 C 4.40625 -5.753906 4.289062 -6.003906 4.0625 -6.171875 C 3.832031 -6.335938 3.457031 -6.421875 2.9375 -6.421875 L 2.765625 -6.421875 Z M 2.765625 -4.421875 "/></g></g></g><g fill="#d9d9d9" fill-opacity="1"><g transform="translate(423.379546, 164.192934)"><g><path d="M 2.171875 -2.40625 C 2.171875 -1.59375 2.570312 -1.1875 3.375 -1.1875 C 3.789062 -1.1875 4.097656 -1.351562 4.296875 -1.6875 L 6.15625 -1.6875 C 6.03125 -1.125 5.71875 -0.671875 5.21875 -0.328125 C 4.71875 0.015625 4.101562 0.1875 3.375 0.1875 C 2.414062 0.1875 1.648438 -0.078125 1.078125 -0.609375 C 0.515625 -1.140625 0.234375 -1.84375 0.234375 -2.71875 C 0.234375 -3.601562 0.503906 -4.304688 1.046875 -4.828125 C 1.597656 -5.359375 2.332031 -5.625 3.25 -5.625 C 4.1875 -5.625 4.914062 -5.351562 5.4375 -4.8125 C 5.96875 -4.269531 6.234375 -3.519531 6.234375 -2.5625 L 6.234375 -2.40625 Z M 4.4375 -3.515625 C 4.382812 -3.785156 4.253906 -3.992188 4.046875 -4.140625 C 3.835938 -4.296875 3.601562 -4.375 3.34375 -4.375 C 3.050781 -4.375 2.800781 -4.300781 2.59375 -4.15625 C 2.382812 -4.007812 2.253906 -3.796875 2.203125 -3.515625 Z M 4.4375 -3.515625 "/></g></g></g><g fill="#d9d9d9" fill-opacity="1"><g transform="translate(429.857892, 164.192934)"><g><path d="M 2.578125 -8.8125 L 2.578125 0 L 0.640625 0 L 0.640625 -8.8125 Z M 2.578125 -8.8125 "/></g></g></g><g fill="#d9d9d9" fill-opacity="1"><g transform="translate(433.065205, 164.192934)"><g><path d="M 2.171875 -2.40625 C 2.171875 -1.59375 2.570312 -1.1875 3.375 -1.1875 C 3.789062 -1.1875 4.097656 -1.351562 4.296875 -1.6875 L 6.15625 -1.6875 C 6.03125 -1.125 5.71875 -0.671875 5.21875 -0.328125 C 4.71875 0.015625 4.101562 0.1875 3.375 0.1875 C 2.414062 0.1875 1.648438 -0.078125 1.078125 -0.609375 C 0.515625 -1.140625 0.234375 -1.84375 0.234375 -2.71875 C 0.234375 -3.601562 0.503906 -4.304688 1.046875 -4.828125 C 1.597656 -5.359375 2.332031 -5.625 3.25 -5.625 C 4.1875 -5.625 4.914062 -5.351562 5.4375 -4.8125 C 5.96875 -4.269531 6.234375 -3.519531 6.234375 -2.5625 L 6.234375 -2.40625 Z M 4.4375 -3.515625 C 4.382812 -3.785156 4.253906 -3.992188 4.046875 -4.140625 C 3.835938 -4.296875 3.601562 -4.375 3.34375 -4.375 C 3.050781 -4.375 2.800781 -4.300781 2.59375 -4.15625 C 2.382812 -4.007812 2.253906 -3.796875 2.203125 -3.515625 Z M 4.4375 -3.515625 "/></g></g></g><g fill="#d9d9d9" fill-opacity="1"><g transform="translate(439.543552, 164.192934)"><g><path d="M 4.671875 -5.453125 L 6.59375 -5.453125 L 6.59375 0 L 4.671875 0 L 4.671875 -0.609375 L 4.640625 -0.609375 C 4.304688 -0.0976562 3.757812 0.164062 3 0.1875 C 2.226562 0.1875 1.578125 -0.0859375 1.046875 -0.640625 C 0.515625 -1.203125 0.25 -1.898438 0.25 -2.734375 C 0.25 -3.554688 0.515625 -4.242188 1.046875 -4.796875 C 1.578125 -5.347656 2.21875 -5.625 2.96875 -5.625 C 3.675781 -5.613281 4.242188 -5.378906 4.671875 -4.921875 Z M 3.484375 -1.5 C 3.847656 -1.5 4.144531 -1.601562 4.375 -1.8125 C 4.613281 -2.03125 4.734375 -2.332031 4.734375 -2.71875 C 4.734375 -3.082031 4.617188 -3.378906 4.390625 -3.609375 C 4.160156 -3.835938 3.851562 -3.953125 3.46875 -3.953125 C 3.113281 -3.953125 2.816406 -3.835938 2.578125 -3.609375 C 2.347656 -3.378906 2.234375 -3.082031 2.234375 -2.71875 C 2.234375 -2.351562 2.347656 -2.054688 2.578125 -1.828125 C 2.816406 -1.609375 3.117188 -1.5 3.484375 -1.5 Z M 3.484375 -1.5 "/></g></g></g><g fill="#d9d9d9" fill-opacity="1"><g transform="translate(446.786554, 164.192934)"><g><path d="M 3.109375 -5.625 C 3.773438 -5.625 4.367188 -5.507812 4.890625 -5.28125 L 4.234375 -4.046875 C 3.898438 -4.222656 3.554688 -4.3125 3.203125 -4.3125 C 3.035156 -4.3125 2.890625 -4.273438 2.765625 -4.203125 C 2.648438 -4.140625 2.59375 -4.050781 2.59375 -3.9375 C 2.59375 -3.726562 2.785156 -3.59375 3.171875 -3.53125 L 3.46875 -3.46875 C 4.519531 -3.269531 5.046875 -2.726562 5.046875 -1.84375 C 5.046875 -1.21875 4.8125 -0.722656 4.34375 -0.359375 C 3.875 -0.00390625 3.25 0.175781 2.46875 0.1875 C 1.695312 0.1875 0.96875 -0.0234375 0.28125 -0.453125 L 0.984375 -1.796875 C 1.148438 -1.660156 1.382812 -1.535156 1.6875 -1.421875 C 2 -1.304688 2.269531 -1.25 2.5 -1.25 C 2.65625 -1.25 2.796875 -1.285156 2.921875 -1.359375 C 3.046875 -1.429688 3.109375 -1.53125 3.109375 -1.65625 C 3.109375 -1.78125 3.046875 -1.878906 2.921875 -1.953125 C 2.804688 -2.035156 2.609375 -2.109375 2.328125 -2.171875 C 1.671875 -2.296875 1.234375 -2.476562 1.015625 -2.71875 C 0.796875 -2.957031 0.6875 -3.285156 0.6875 -3.703125 C 0.6875 -4.273438 0.910156 -4.738281 1.359375 -5.09375 C 1.804688 -5.445312 2.390625 -5.625 3.109375 -5.625 Z M 3.109375 -5.625 "/></g></g></g><g fill="#d9d9d9" fill-opacity="1"><g transform="translate(452.234734, 164.192934)"><g><path d="M 2.171875 -2.40625 C 2.171875 -1.59375 2.570312 -1.1875 3.375 -1.1875 C 3.789062 -1.1875 4.097656 -1.351562 4.296875 -1.6875 L 6.15625 -1.6875 C 6.03125 -1.125 5.71875 -0.671875 5.21875 -0.328125 C 4.71875 0.015625 4.101562 0.1875 3.375 0.1875 C 2.414062 0.1875 1.648438 -0.078125 1.078125 -0.609375 C 0.515625 -1.140625 0.234375 -1.84375 0.234375 -2.71875 C 0.234375 -3.601562 0.503906 -4.304688 1.046875 -4.828125 C 1.597656 -5.359375 2.332031 -5.625 3.25 -5.625 C 4.1875 -5.625 4.914062 -5.351562 5.4375 -4.8125 C 5.96875 -4.269531 6.234375 -3.519531 6.234375 -2.5625 L 6.234375 -2.40625 Z M 4.4375 -3.515625 C 4.382812 -3.785156 4.253906 -3.992188 4.046875 -4.140625 C 3.835938 -4.296875 3.601562 -4.375 3.34375 -4.375 C 3.050781 -4.375 2.800781 -4.300781 2.59375 -4.15625 C 2.382812 -4.007812 2.253906 -3.796875 2.203125 -3.515625 Z M 4.4375 -3.515625 "/></g></g></g><g fill="#d9d9d9" fill-opacity="1"><g transform="translate(390.455712, 177.746657)"><g><path d="M 5.984375 -8.015625 L 5.984375 -6.25 L 3.203125 -6.25 L 3.078125 -5.328125 C 3.535156 -5.367188 3.828125 -5.390625 3.953125 -5.390625 C 4.691406 -5.390625 5.3125 -5.109375 5.8125 -4.546875 C 6.3125 -3.984375 6.5625 -3.304688 6.5625 -2.515625 C 6.5625 -1.972656 6.414062 -1.472656 6.125 -1.015625 C 5.84375 -0.566406 5.453125 -0.234375 4.953125 -0.015625 C 4.453125 0.203125 3.867188 0.3125 3.203125 0.3125 C 2.210938 0.3125 1.335938 0.0703125 0.578125 -0.40625 L 0.890625 -2.375 C 1.585938 -1.75 2.328125 -1.4375 3.109375 -1.4375 C 3.472656 -1.4375 3.78125 -1.550781 4.03125 -1.78125 C 4.28125 -2.019531 4.40625 -2.300781 4.40625 -2.625 C 4.40625 -3.039062 4.238281 -3.375 3.90625 -3.625 C 3.570312 -3.875 3.148438 -4 2.640625 -4 C 2.066406 -4 1.554688 -3.890625 1.109375 -3.671875 L 1.8125 -8.015625 Z M 5.984375 -8.015625 "/></g></g></g><g fill="#d9d9d9" fill-opacity="1"><g transform="translate(397.741195, 177.746657)"><g><path d="M 7.046875 -4 C 7.046875 -2.726562 6.734375 -1.691406 6.109375 -0.890625 C 5.492188 -0.0859375 4.671875 0.3125 3.640625 0.3125 C 2.617188 0.3125 1.796875 -0.0859375 1.171875 -0.890625 C 0.554688 -1.691406 0.25 -2.726562 0.25 -4 C 0.25 -5.257812 0.554688 -6.296875 1.171875 -7.109375 C 1.796875 -7.921875 2.617188 -8.328125 3.640625 -8.328125 C 4.335938 -8.328125 4.941406 -8.132812 5.453125 -7.75 C 5.972656 -7.375 6.367188 -6.851562 6.640625 -6.1875 C 6.910156 -5.53125 7.046875 -4.800781 7.046875 -4 Z M 3.640625 -1.515625 C 4.035156 -1.515625 4.351562 -1.75 4.59375 -2.21875 C 4.84375 -2.695312 4.96875 -3.296875 4.96875 -4.015625 C 4.96875 -4.710938 4.84375 -5.296875 4.59375 -5.765625 C 4.351562 -6.242188 4.035156 -6.484375 3.640625 -6.484375 C 3.378906 -6.484375 3.148438 -6.378906 2.953125 -6.171875 C 2.753906 -5.960938 2.597656 -5.65625 2.484375 -5.25 C 2.367188 -4.84375 2.3125 -4.429688 2.3125 -4.015625 C 2.3125 -3.316406 2.429688 -2.722656 2.671875 -2.234375 C 2.910156 -1.753906 3.234375 -1.515625 3.640625 -1.515625 Z M 3.640625 -1.515625 "/></g></g></g><g fill="#d9d9d9" fill-opacity="1"><g transform="translate(405.026678, 177.746657)"><g><path d="M 4.578125 -6.171875 C 4.578125 -5.566406 4.375 -5.085938 3.96875 -4.734375 C 3.570312 -4.378906 3.046875 -4.203125 2.390625 -4.203125 C 1.710938 -4.203125 1.175781 -4.378906 0.78125 -4.734375 C 0.394531 -5.097656 0.203125 -5.578125 0.203125 -6.171875 C 0.203125 -6.765625 0.398438 -7.238281 0.796875 -7.59375 C 1.203125 -7.945312 1.734375 -8.125 2.390625 -8.125 C 3.023438 -8.125 3.546875 -7.945312 3.953125 -7.59375 C 4.367188 -7.25 4.578125 -6.773438 4.578125 -6.171875 Z M 8.015625 -8.015625 L 3.375 0 L 2.328125 0 L 6.984375 -8.015625 Z M 2.390625 -5.265625 C 2.628906 -5.265625 2.835938 -5.347656 3.015625 -5.515625 C 3.203125 -5.679688 3.296875 -5.894531 3.296875 -6.15625 C 3.296875 -6.40625 3.207031 -6.617188 3.03125 -6.796875 C 2.851562 -6.972656 2.640625 -7.0625 2.390625 -7.0625 C 2.140625 -7.0625 1.925781 -6.972656 1.75 -6.796875 C 1.570312 -6.617188 1.484375 -6.40625 1.484375 -6.15625 C 1.484375 -5.894531 1.570312 -5.679688 1.75 -5.515625 C 1.9375 -5.347656 2.148438 -5.265625 2.390625 -5.265625 Z M 10.15625 -1.875 C 10.15625 -1.257812 9.957031 -0.773438 9.5625 -0.421875 C 9.164062 -0.0664062 8.632812 0.109375 7.96875 0.109375 C 7.289062 0.109375 6.753906 -0.0703125 6.359375 -0.4375 C 5.972656 -0.800781 5.78125 -1.28125 5.78125 -1.875 C 5.78125 -2.4375 5.972656 -2.898438 6.359375 -3.265625 C 6.753906 -3.628906 7.289062 -3.8125 7.96875 -3.8125 C 8.601562 -3.8125 9.125 -3.632812 9.53125 -3.28125 C 9.945312 -2.9375 10.15625 -2.46875 10.15625 -1.875 Z M 7.96875 -0.953125 C 8.207031 -0.953125 8.414062 -1.035156 8.59375 -1.203125 C 8.78125 -1.378906 8.875 -1.59375 8.875 -1.84375 C 8.875 -2.09375 8.785156 -2.304688 8.609375 -2.484375 C 8.429688 -2.660156 8.21875 -2.75 7.96875 -2.75 C 7.71875 -2.75 7.503906 -2.660156 7.328125 -2.484375 C 7.148438 -2.304688 7.0625 -2.09375 7.0625 -1.84375 C 7.0625 -1.59375 7.148438 -1.378906 7.328125 -1.203125 C 7.515625 -1.035156 7.726562 -0.953125 7.96875 -0.953125 Z M 7.96875 -0.953125 "/></g></g></g><g fill="#d9d9d9" fill-opacity="1"><g transform="translate(12.44368, 216.22409)"><g><path d="M 3.609375 -8.015625 L 5.234375 -3.734375 L 6.953125 -8.015625 L 9.03125 -8.015625 L 10.25 0 L 8.15625 0 L 7.578125 -4.609375 L 7.546875 -4.609375 L 5.625 0 L 4.796875 0 L 2.96875 -4.609375 L 2.9375 -4.609375 L 2.28125 0 L 0.203125 0 L 1.5625 -8.015625 Z M 3.609375 -8.015625 "/></g></g></g><g fill="#d9d9d9" fill-opacity="1"><g transform="translate(22.883368, 216.22409)"><g><path d="M 4.671875 -5.453125 L 6.59375 -5.453125 L 6.59375 0 L 4.671875 0 L 4.671875 -0.609375 L 4.640625 -0.609375 C 4.304688 -0.0976562 3.757812 0.164062 3 0.1875 C 2.226562 0.1875 1.578125 -0.0859375 1.046875 -0.640625 C 0.515625 -1.203125 0.25 -1.898438 0.25 -2.734375 C 0.25 -3.554688 0.515625 -4.242188 1.046875 -4.796875 C 1.578125 -5.347656 2.21875 -5.625 2.96875 -5.625 C 3.675781 -5.613281 4.242188 -5.378906 4.671875 -4.921875 Z M 3.484375 -1.5 C 3.847656 -1.5 4.144531 -1.601562 4.375 -1.8125 C 4.613281 -2.03125 4.734375 -2.332031 4.734375 -2.71875 C 4.734375 -3.082031 4.617188 -3.378906 4.390625 -3.609375 C 4.160156 -3.835938 3.851562 -3.953125 3.46875 -3.953125 C 3.113281 -3.953125 2.816406 -3.835938 2.578125 -3.609375 C 2.347656 -3.378906 2.234375 -3.082031 2.234375 -2.71875 C 2.234375 -2.351562 2.347656 -2.054688 2.578125 -1.828125 C 2.816406 -1.609375 3.117188 -1.5 3.484375 -1.5 Z M 3.484375 -1.5 "/></g></g></g><g fill="#d9d9d9" fill-opacity="1"><g transform="translate(30.126371, 216.22409)"><g><path d="M 4.734375 -3.671875 C 4.503906 -3.796875 4.226562 -3.851562 3.90625 -3.84375 C 3.4375 -3.84375 3.097656 -3.707031 2.890625 -3.4375 C 2.679688 -3.175781 2.578125 -2.773438 2.578125 -2.234375 L 2.578125 0 L 0.640625 0 L 0.640625 -5.453125 L 2.578125 -5.453125 L 2.578125 -4.5625 L 2.59375 -4.5625 C 2.945312 -5.207031 3.535156 -5.53125 4.359375 -5.53125 L 4.734375 -5.53125 Z M 4.734375 -3.671875 "/></g></g></g><g fill="#d9d9d9" fill-opacity="1"><g transform="translate(34.937336, 216.22409)"><g><path d="M 2.578125 -8.8125 L 2.578125 -3.484375 L 4.578125 -5.453125 L 7.21875 -5.453125 L 4.5 -2.9375 L 7.390625 0 L 4.6875 0 L 2.578125 -2.21875 L 2.578125 0 L 0.640625 0 L 0.640625 -8.8125 Z M 2.578125 -8.8125 "/></g></g></g><g fill="#d9d9d9" fill-opacity="1"><g transform="translate(42.052869, 216.22409)"><g><path d="M 2.171875 -2.40625 C 2.171875 -1.59375 2.570312 -1.1875 3.375 -1.1875 C 3.789062 -1.1875 4.097656 -1.351562 4.296875 -1.6875 L 6.15625 -1.6875 C 6.03125 -1.125 5.71875 -0.671875 5.21875 -0.328125 C 4.71875 0.015625 4.101562 0.1875 3.375 0.1875 C 2.414062 0.1875 1.648438 -0.078125 1.078125 -0.609375 C 0.515625 -1.140625 0.234375 -1.84375 0.234375 -2.71875 C 0.234375 -3.601562 0.503906 -4.304688 1.046875 -4.828125 C 1.597656 -5.359375 2.332031 -5.625 3.25 -5.625 C 4.1875 -5.625 4.914062 -5.351562 5.4375 -4.8125 C 5.96875 -4.269531 6.234375 -3.519531 6.234375 -2.5625 L 6.234375 -2.40625 Z M 4.4375 -3.515625 C 4.382812 -3.785156 4.253906 -3.992188 4.046875 -4.140625 C 3.835938 -4.296875 3.601562 -4.375 3.34375 -4.375 C 3.050781 -4.375 2.800781 -4.300781 2.59375 -4.15625 C 2.382812 -4.007812 2.253906 -3.796875 2.203125 -3.515625 Z M 4.4375 -3.515625 "/></g></g></g><g fill="#d9d9d9" fill-opacity="1"><g transform="translate(48.531216, 216.22409)"><g><path d="M 2.75 -7.09375 L 2.75 -5.453125 L 3.84375 -5.453125 L 3.84375 -3.859375 L 2.75 -3.859375 L 2.75 0 L 0.8125 0 L 0.8125 -3.859375 L 0.1875 -3.859375 L 0.1875 -5.453125 L 0.8125 -5.453125 L 0.8125 -7.09375 Z M 2.75 -7.09375 "/></g></g></g><g fill="#d9d9d9" fill-opacity="1"><g transform="translate(52.365123, 216.22409)"><g><path d="M 2.6875 -7.546875 C 2.6875 -7.242188 2.578125 -6.984375 2.359375 -6.765625 C 2.148438 -6.554688 1.898438 -6.453125 1.609375 -6.453125 C 1.304688 -6.453125 1.046875 -6.5625 0.828125 -6.78125 C 0.617188 -7 0.515625 -7.253906 0.515625 -7.546875 C 0.515625 -7.859375 0.625 -8.113281 0.84375 -8.3125 C 1.0625 -8.519531 1.316406 -8.625 1.609375 -8.625 C 1.898438 -8.625 2.148438 -8.519531 2.359375 -8.3125 C 2.578125 -8.101562 2.6875 -7.847656 2.6875 -7.546875 Z M 2.578125 -5.453125 L 2.578125 0 L 0.640625 0 L 0.640625 -5.453125 Z M 2.578125 -5.453125 "/></g></g></g><g fill="#d9d9d9" fill-opacity="1"><g transform="translate(55.572436, 216.22409)"><g><path d="M 6.390625 0 L 4.453125 0 L 4.453125 -3 C 4.460938 -3.726562 4.171875 -4.09375 3.578125 -4.09375 C 2.921875 -4.09375 2.585938 -3.679688 2.578125 -2.859375 L 2.578125 0 L 0.640625 0 L 0.640625 -5.453125 L 2.578125 -5.453125 L 2.578125 -4.75 L 2.59375 -4.75 C 2.800781 -5.070312 3.046875 -5.296875 3.328125 -5.421875 C 3.609375 -5.554688 3.941406 -5.625 4.328125 -5.625 C 5.035156 -5.625 5.554688 -5.425781 5.890625 -5.03125 C 6.222656 -4.632812 6.390625 -4.09375 6.390625 -3.40625 Z M 6.390625 0 "/></g></g></g><g fill="#d9d9d9" fill-opacity="1"><g transform="translate(62.592409, 216.22409)"><g><path d="M 4.6875 -4.875 L 4.6875 -5.453125 L 6.625 -5.453125 L 6.625 -0.484375 C 6.625 1.648438 5.570312 2.71875 3.46875 2.71875 C 2.644531 2.71875 1.929688 2.519531 1.328125 2.125 C 0.734375 1.726562 0.410156 1.234375 0.359375 0.640625 L 2.53125 0.640625 C 2.582031 0.804688 2.691406 0.9375 2.859375 1.03125 C 3.035156 1.125 3.234375 1.171875 3.453125 1.171875 C 3.867188 1.171875 4.175781 1.050781 4.375 0.8125 C 4.582031 0.582031 4.6875 0.1875 4.6875 -0.375 L 4.6875 -0.640625 C 4.1875 -0.140625 3.609375 0.109375 2.953125 0.109375 C 2.171875 0.109375 1.523438 -0.148438 1.015625 -0.671875 C 0.515625 -1.191406 0.265625 -1.859375 0.265625 -2.671875 C 0.265625 -3.523438 0.53125 -4.226562 1.0625 -4.78125 C 1.601562 -5.34375 2.269531 -5.625 3.0625 -5.625 C 3.78125 -5.625 4.316406 -5.375 4.671875 -4.875 Z M 3.5 -1.546875 C 3.875 -1.546875 4.175781 -1.65625 4.40625 -1.875 C 4.632812 -2.09375 4.75 -2.390625 4.75 -2.765625 C 4.75 -3.117188 4.632812 -3.410156 4.40625 -3.640625 C 4.175781 -3.878906 3.875 -4 3.5 -4 C 3.132812 -4 2.835938 -3.878906 2.609375 -3.640625 C 2.378906 -3.410156 2.265625 -3.117188 2.265625 -2.765625 C 2.265625 -2.390625 2.378906 -2.09375 2.609375 -1.875 C 2.835938 -1.65625 3.132812 -1.546875 3.5 -1.546875 Z M 3.5 -1.546875 "/></g></g></g><g fill="#d9d9d9" fill-opacity="1"><g transform="translate(28.647003, 232.580275)"><g><path d="M 6.703125 -5.484375 C 6.703125 -5.222656 6.671875 -4.972656 6.609375 -4.734375 C 6.554688 -4.503906 6.484375 -4.296875 6.390625 -4.109375 C 6.304688 -3.921875 6.175781 -3.726562 6 -3.53125 C 5.832031 -3.332031 5.222656 -2.742188 4.171875 -1.765625 L 6.796875 -1.765625 L 6.796875 0 L 0.34375 0 L 3.625 -3.5625 C 3.894531 -3.851562 4.113281 -4.171875 4.28125 -4.515625 C 4.445312 -4.867188 4.53125 -5.207031 4.53125 -5.53125 C 4.53125 -5.8125 4.4375 -6.050781 4.25 -6.25 C 4.070312 -6.457031 3.863281 -6.5625 3.625 -6.5625 C 3.363281 -6.5625 3.148438 -6.472656 2.984375 -6.296875 C 2.828125 -6.117188 2.75 -5.882812 2.75 -5.59375 L 2.78125 -5.25 L 0.484375 -5.25 C 0.515625 -6.175781 0.8125 -6.921875 1.375 -7.484375 C 1.9375 -8.046875 2.679688 -8.328125 3.609375 -8.328125 C 4.503906 -8.328125 5.242188 -8.054688 5.828125 -7.515625 C 6.410156 -6.984375 6.703125 -6.304688 6.703125 -5.484375 Z M 6.703125 -5.484375 "/></g></g></g><g fill="#d9d9d9" fill-opacity="1"><g transform="translate(35.932486, 232.580275)"><g><path d="M 7.046875 -4 C 7.046875 -2.726562 6.734375 -1.691406 6.109375 -0.890625 C 5.492188 -0.0859375 4.671875 0.3125 3.640625 0.3125 C 2.617188 0.3125 1.796875 -0.0859375 1.171875 -0.890625 C 0.554688 -1.691406 0.25 -2.726562 0.25 -4 C 0.25 -5.257812 0.554688 -6.296875 1.171875 -7.109375 C 1.796875 -7.921875 2.617188 -8.328125 3.640625 -8.328125 C 4.335938 -8.328125 4.941406 -8.132812 5.453125 -7.75 C 5.972656 -7.375 6.367188 -6.851562 6.640625 -6.1875 C 6.910156 -5.53125 7.046875 -4.800781 7.046875 -4 Z M 3.640625 -1.515625 C 4.035156 -1.515625 4.351562 -1.75 4.59375 -2.21875 C 4.84375 -2.695312 4.96875 -3.296875 4.96875 -4.015625 C 4.96875 -4.710938 4.84375 -5.296875 4.59375 -5.765625 C 4.351562 -6.242188 4.035156 -6.484375 3.640625 -6.484375 C 3.378906 -6.484375 3.148438 -6.378906 2.953125 -6.171875 C 2.753906 -5.960938 2.597656 -5.65625 2.484375 -5.25 C 2.367188 -4.84375 2.3125 -4.429688 2.3125 -4.015625 C 2.3125 -3.316406 2.429688 -2.722656 2.671875 -2.234375 C 2.910156 -1.753906 3.234375 -1.515625 3.640625 -1.515625 Z M 3.640625 -1.515625 "/></g></g></g><g fill="#d9d9d9" fill-opacity="1"><g transform="translate(43.217969, 232.580275)"><g><path d="M 4.578125 -6.171875 C 4.578125 -5.566406 4.375 -5.085938 3.96875 -4.734375 C 3.570312 -4.378906 3.046875 -4.203125 2.390625 -4.203125 C 1.710938 -4.203125 1.175781 -4.378906 0.78125 -4.734375 C 0.394531 -5.097656 0.203125 -5.578125 0.203125 -6.171875 C 0.203125 -6.765625 0.398438 -7.238281 0.796875 -7.59375 C 1.203125 -7.945312 1.734375 -8.125 2.390625 -8.125 C 3.023438 -8.125 3.546875 -7.945312 3.953125 -7.59375 C 4.367188 -7.25 4.578125 -6.773438 4.578125 -6.171875 Z M 8.015625 -8.015625 L 3.375 0 L 2.328125 0 L 6.984375 -8.015625 Z M 2.390625 -5.265625 C 2.628906 -5.265625 2.835938 -5.347656 3.015625 -5.515625 C 3.203125 -5.679688 3.296875 -5.894531 3.296875 -6.15625 C 3.296875 -6.40625 3.207031 -6.617188 3.03125 -6.796875 C 2.851562 -6.972656 2.640625 -7.0625 2.390625 -7.0625 C 2.140625 -7.0625 1.925781 -6.972656 1.75 -6.796875 C 1.570312 -6.617188 1.484375 -6.40625 1.484375 -6.15625 C 1.484375 -5.894531 1.570312 -5.679688 1.75 -5.515625 C 1.9375 -5.347656 2.148438 -5.265625 2.390625 -5.265625 Z M 10.15625 -1.875 C 10.15625 -1.257812 9.957031 -0.773438 9.5625 -0.421875 C 9.164062 -0.0664062 8.632812 0.109375 7.96875 0.109375 C 7.289062 0.109375 6.753906 -0.0703125 6.359375 -0.4375 C 5.972656 -0.800781 5.78125 -1.28125 5.78125 -1.875 C 5.78125 -2.4375 5.972656 -2.898438 6.359375 -3.265625 C 6.753906 -3.628906 7.289062 -3.8125 7.96875 -3.8125 C 8.601562 -3.8125 9.125 -3.632812 9.53125 -3.28125 C 9.945312 -2.9375 10.15625 -2.46875 10.15625 -1.875 Z M 7.96875 -0.953125 C 8.207031 -0.953125 8.414062 -1.035156 8.59375 -1.203125 C 8.78125 -1.378906 8.875 -1.59375 8.875 -1.84375 C 8.875 -2.09375 8.785156 -2.304688 8.609375 -2.484375 C 8.429688 -2.660156 8.21875 -2.75 7.96875 -2.75 C 7.71875 -2.75 7.503906 -2.660156 7.328125 -2.484375 C 7.148438 -2.304688 7.0625 -2.09375 7.0625 -1.84375 C 7.0625 -1.59375 7.148438 -1.378906 7.328125 -1.203125 C 7.515625 -1.035156 7.726562 -0.953125 7.96875 -0.953125 Z M 7.96875 -0.953125 "/></g></g></g><g fill="#d9d9d9" fill-opacity="1"><g transform="translate(0.92811, 9.446102)"><g><path d="M 3.828125 -8.015625 C 4.671875 -8.015625 5.335938 -7.796875 5.828125 -7.359375 C 6.328125 -6.929688 6.578125 -6.328125 6.578125 -5.546875 C 6.578125 -4.960938 6.421875 -4.460938 6.109375 -4.046875 C 5.796875 -3.640625 5.367188 -3.382812 4.828125 -3.28125 L 7.34375 0 L 4.75 0 L 2.78125 -3.078125 L 2.765625 -3.078125 L 2.765625 0 L 0.6875 0 L 0.6875 -8.015625 Z M 2.765625 -4.421875 L 2.9375 -4.421875 C 3.445312 -4.421875 3.816406 -4.5 4.046875 -4.65625 C 4.285156 -4.820312 4.40625 -5.078125 4.40625 -5.421875 C 4.40625 -5.753906 4.289062 -6.003906 4.0625 -6.171875 C 3.832031 -6.335938 3.457031 -6.421875 2.9375 -6.421875 L 2.765625 -6.421875 Z M 2.765625 -4.421875 "/></g></g></g><g fill="#d9d9d9" fill-opacity="1"><g transform="translate(8.02241, 9.446102)"><g><path d="M 2.171875 -2.40625 C 2.171875 -1.59375 2.570312 -1.1875 3.375 -1.1875 C 3.789062 -1.1875 4.097656 -1.351562 4.296875 -1.6875 L 6.15625 -1.6875 C 6.03125 -1.125 5.71875 -0.671875 5.21875 -0.328125 C 4.71875 0.015625 4.101562 0.1875 3.375 0.1875 C 2.414062 0.1875 1.648438 -0.078125 1.078125 -0.609375 C 0.515625 -1.140625 0.234375 -1.84375 0.234375 -2.71875 C 0.234375 -3.601562 0.503906 -4.304688 1.046875 -4.828125 C 1.597656 -5.359375 2.332031 -5.625 3.25 -5.625 C 4.1875 -5.625 4.914062 -5.351562 5.4375 -4.8125 C 5.96875 -4.269531 6.234375 -3.519531 6.234375 -2.5625 L 6.234375 -2.40625 Z M 4.4375 -3.515625 C 4.382812 -3.785156 4.253906 -3.992188 4.046875 -4.140625 C 3.835938 -4.296875 3.601562 -4.375 3.34375 -4.375 C 3.050781 -4.375 2.800781 -4.300781 2.59375 -4.15625 C 2.382812 -4.007812 2.253906 -3.796875 2.203125 -3.515625 Z M 4.4375 -3.515625 "/></g></g></g><g fill="#d9d9d9" fill-opacity="1"><g transform="translate(14.500756, 9.446102)"><g><path d="M 1.984375 -5.453125 L 3.34375 -2.5 L 4.71875 -5.453125 L 5.859375 -5.453125 L 7.234375 -2.5 L 8.609375 -5.453125 L 10.734375 -5.453125 L 7.890625 0 L 6.640625 0 L 5.296875 -2.984375 L 3.9375 0 L 2.6875 0 L -0.15625 -5.453125 Z M 1.984375 -5.453125 "/></g></g></g><g fill="#d9d9d9" fill-opacity="1"><g transform="translate(25.078513, 9.446102)"><g><path d="M 4.671875 -5.453125 L 6.59375 -5.453125 L 6.59375 0 L 4.671875 0 L 4.671875 -0.609375 L 4.640625 -0.609375 C 4.304688 -0.0976562 3.757812 0.164062 3 0.1875 C 2.226562 0.1875 1.578125 -0.0859375 1.046875 -0.640625 C 0.515625 -1.203125 0.25 -1.898438 0.25 -2.734375 C 0.25 -3.554688 0.515625 -4.242188 1.046875 -4.796875 C 1.578125 -5.347656 2.21875 -5.625 2.96875 -5.625 C 3.675781 -5.613281 4.242188 -5.378906 4.671875 -4.921875 Z M 3.484375 -1.5 C 3.847656 -1.5 4.144531 -1.601562 4.375 -1.8125 C 4.613281 -2.03125 4.734375 -2.332031 4.734375 -2.71875 C 4.734375 -3.082031 4.617188 -3.378906 4.390625 -3.609375 C 4.160156 -3.835938 3.851562 -3.953125 3.46875 -3.953125 C 3.113281 -3.953125 2.816406 -3.835938 2.578125 -3.609375 C 2.347656 -3.378906 2.234375 -3.082031 2.234375 -2.71875 C 2.234375 -2.351562 2.347656 -2.054688 2.578125 -1.828125 C 2.816406 -1.609375 3.117188 -1.5 3.484375 -1.5 Z M 3.484375 -1.5 "/></g></g></g><g fill="#d9d9d9" fill-opacity="1"><g transform="translate(32.321516, 9.446102)"><g><path d="M 4.734375 -3.671875 C 4.503906 -3.796875 4.226562 -3.851562 3.90625 -3.84375 C 3.4375 -3.84375 3.097656 -3.707031 2.890625 -3.4375 C 2.679688 -3.175781 2.578125 -2.773438 2.578125 -2.234375 L 2.578125 0 L 0.640625 0 L 0.640625 -5.453125 L 2.578125 -5.453125 L 2.578125 -4.5625 L 2.59375 -4.5625 C 2.945312 -5.207031 3.535156 -5.53125 4.359375 -5.53125 L 4.734375 -5.53125 Z M 4.734375 -3.671875 "/></g></g></g><g clip-path="url(#63a844e551)"><g fill="#d9d9d9" fill-opacity="1"><g transform="translate(37.068754, 9.446102)"><g><path d="M 6.671875 -8.8125 L 6.671875 0 L 4.734375 0 L 4.734375 -0.609375 L 4.71875 -0.609375 C 4.5625 -0.347656 4.332031 -0.148438 4.03125 -0.015625 C 3.738281 0.117188 3.421875 0.1875 3.078125 0.1875 C 2.304688 0.1875 1.648438 -0.09375 1.109375 -0.65625 C 0.578125 -1.226562 0.3125 -1.921875 0.3125 -2.734375 C 0.3125 -3.554688 0.578125 -4.242188 1.109375 -4.796875 C 1.648438 -5.347656 2.296875 -5.625 3.046875 -5.625 C 3.773438 -5.625 4.335938 -5.390625 4.734375 -4.921875 L 4.734375 -8.8125 Z M 3.5625 -1.5 C 3.925781 -1.5 4.222656 -1.609375 4.453125 -1.828125 C 4.679688 -2.054688 4.796875 -2.351562 4.796875 -2.71875 C 4.796875 -3.082031 4.679688 -3.378906 4.453125 -3.609375 C 4.234375 -3.835938 3.929688 -3.953125 3.546875 -3.953125 C 3.179688 -3.953125 2.882812 -3.832031 2.65625 -3.59375 C 2.425781 -3.351562 2.3125 -3.0625 2.3125 -2.71875 C 2.3125 -2.351562 2.421875 -2.054688 2.640625 -1.828125 C 2.867188 -1.609375 3.175781 -1.5 3.5625 -1.5 Z M 3.5625 -1.5 "/></g></g></g></g><g fill="#d9d9d9" fill-opacity="1"><g transform="translate(44.311756, 9.446102)"><g><path d="M 3.109375 -5.625 C 3.773438 -5.625 4.367188 -5.507812 4.890625 -5.28125 L 4.234375 -4.046875 C 3.898438 -4.222656 3.554688 -4.3125 3.203125 -4.3125 C 3.035156 -4.3125 2.890625 -4.273438 2.765625 -4.203125 C 2.648438 -4.140625 2.59375 -4.050781 2.59375 -3.9375 C 2.59375 -3.726562 2.785156 -3.59375 3.171875 -3.53125 L 3.46875 -3.46875 C 4.519531 -3.269531 5.046875 -2.726562 5.046875 -1.84375 C 5.046875 -1.21875 4.8125 -0.722656 4.34375 -0.359375 C 3.875 -0.00390625 3.25 0.175781 2.46875 0.1875 C 1.695312 0.1875 0.96875 -0.0234375 0.28125 -0.453125 L 0.984375 -1.796875 C 1.148438 -1.660156 1.382812 -1.535156 1.6875 -1.421875 C 2 -1.304688 2.269531 -1.25 2.5 -1.25 C 2.65625 -1.25 2.796875 -1.285156 2.921875 -1.359375 C 3.046875 -1.429688 3.109375 -1.53125 3.109375 -1.65625 C 3.109375 -1.78125 3.046875 -1.878906 2.921875 -1.953125 C 2.804688 -2.035156 2.609375 -2.109375 2.328125 -2.171875 C 1.671875 -2.296875 1.234375 -2.476562 1.015625 -2.71875 C 0.796875 -2.957031 0.6875 -3.285156 0.6875 -3.703125 C 0.6875 -4.273438 0.910156 -4.738281 1.359375 -5.09375 C 1.804688 -5.445312 2.390625 -5.625 3.109375 -5.625 Z M 3.109375 -5.625 "/></g></g></g><g fill="#d9d9d9" fill-opacity="1"><g transform="translate(49.759937, 9.446102)"><g><path d="M 3.4375 -2.03125 L 1.484375 1.5 L 0.234375 1.5 L 1.609375 -2.03125 Z M 3.4375 -2.03125 "/></g></g></g><g fill="#d9d9d9" fill-opacity="1"><g transform="translate(53.402675, 9.446102)"><g/></g></g><g fill="#d9d9d9" fill-opacity="1"><g transform="translate(57.045413, 9.446102)"><g><path d="M 5.3125 -8.015625 L 8.328125 0 L 6.109375 0 L 5.59375 -1.390625 L 2.71875 -1.390625 L 2.171875 0 L -0.046875 0 L 3.03125 -8.015625 Z M 3.296875 -2.984375 L 5.03125 -2.984375 L 4.171875 -5.53125 L 4.15625 -5.53125 Z M 3.296875 -2.984375 "/></g></g></g><g clip-path="url(#feb05746a7)"><g fill="#d9d9d9" fill-opacity="1"><g transform="translate(65.339815, 9.446102)"><g><path d="M 2.6875 -7.546875 C 2.6875 -7.242188 2.578125 -6.984375 2.359375 -6.765625 C 2.148438 -6.554688 1.898438 -6.453125 1.609375 -6.453125 C 1.304688 -6.453125 1.046875 -6.5625 0.828125 -6.78125 C 0.617188 -7 0.515625 -7.253906 0.515625 -7.546875 C 0.515625 -7.859375 0.625 -8.113281 0.84375 -8.3125 C 1.0625 -8.519531 1.316406 -8.625 1.609375 -8.625 C 1.898438 -8.625 2.148438 -8.519531 2.359375 -8.3125 C 2.578125 -8.101562 2.6875 -7.847656 2.6875 -7.546875 Z M 2.578125 -5.453125 L 2.578125 0 L 0.640625 0 L 0.640625 -5.453125 Z M 2.578125 -5.453125 "/></g></g></g></g><g fill="#d9d9d9" fill-opacity="1"><g transform="translate(68.547128, 9.446102)"><g><path d="M 4.734375 -3.671875 C 4.503906 -3.796875 4.226562 -3.851562 3.90625 -3.84375 C 3.4375 -3.84375 3.097656 -3.707031 2.890625 -3.4375 C 2.679688 -3.175781 2.578125 -2.773438 2.578125 -2.234375 L 2.578125 0 L 0.640625 0 L 0.640625 -5.453125 L 2.578125 -5.453125 L 2.578125 -4.5625 L 2.59375 -4.5625 C 2.945312 -5.207031 3.535156 -5.53125 4.359375 -5.53125 L 4.734375 -5.53125 Z M 4.734375 -3.671875 "/></g></g></g><g clip-path="url(#36ca2476c3)"><g fill="#d9d9d9" fill-opacity="1"><g transform="translate(73.294365, 9.446102)"><g><path d="M 6.671875 -8.8125 L 6.671875 0 L 4.734375 0 L 4.734375 -0.609375 L 4.71875 -0.609375 C 4.5625 -0.347656 4.332031 -0.148438 4.03125 -0.015625 C 3.738281 0.117188 3.421875 0.1875 3.078125 0.1875 C 2.304688 0.1875 1.648438 -0.09375 1.109375 -0.65625 C 0.578125 -1.226562 0.3125 -1.921875 0.3125 -2.734375 C 0.3125 -3.554688 0.578125 -4.242188 1.109375 -4.796875 C 1.648438 -5.347656 2.296875 -5.625 3.046875 -5.625 C 3.773438 -5.625 4.335938 -5.390625 4.734375 -4.921875 L 4.734375 -8.8125 Z M 3.5625 -1.5 C 3.925781 -1.5 4.222656 -1.609375 4.453125 -1.828125 C 4.679688 -2.054688 4.796875 -2.351562 4.796875 -2.71875 C 4.796875 -3.082031 4.679688 -3.378906 4.453125 -3.609375 C 4.234375 -3.835938 3.929688 -3.953125 3.546875 -3.953125 C 3.179688 -3.953125 2.882812 -3.832031 2.65625 -3.59375 C 2.425781 -3.351562 2.3125 -3.0625 2.3125 -2.71875 C 2.3125 -2.351562 2.421875 -2.054688 2.640625 -1.828125 C 2.867188 -1.609375 3.175781 -1.5 3.5625 -1.5 Z M 3.5625 -1.5 "/></g></g></g></g><g fill="#d9d9d9" fill-opacity="1"><g transform="translate(80.537368, 9.446102)"><g><path d="M 4.734375 -3.671875 C 4.503906 -3.796875 4.226562 -3.851562 3.90625 -3.84375 C 3.4375 -3.84375 3.097656 -3.707031 2.890625 -3.4375 C 2.679688 -3.175781 2.578125 -2.773438 2.578125 -2.234375 L 2.578125 0 L 0.640625 0 L 0.640625 -5.453125 L 2.578125 -5.453125 L 2.578125 -4.5625 L 2.59375 -4.5625 C 2.945312 -5.207031 3.535156 -5.53125 4.359375 -5.53125 L 4.734375 -5.53125 Z M 4.734375 -3.671875 "/></g></g></g><g fill="#d9d9d9" fill-opacity="1"><g transform="translate(85.284606, 9.446102)"><g><path d="M 6.796875 -2.71875 C 6.796875 -1.863281 6.488281 -1.164062 5.875 -0.625 C 5.269531 -0.0820312 4.484375 0.1875 3.515625 0.1875 C 2.554688 0.1875 1.769531 -0.078125 1.15625 -0.609375 C 0.539062 -1.148438 0.234375 -1.851562 0.234375 -2.71875 C 0.234375 -3.570312 0.539062 -4.269531 1.15625 -4.8125 C 1.769531 -5.351562 2.554688 -5.625 3.515625 -5.625 C 4.472656 -5.625 5.257812 -5.351562 5.875 -4.8125 C 6.488281 -4.28125 6.796875 -3.582031 6.796875 -2.71875 Z M 3.515625 -1.5 C 3.898438 -1.5 4.203125 -1.609375 4.421875 -1.828125 C 4.648438 -2.054688 4.765625 -2.351562 4.765625 -2.71875 C 4.765625 -3.0625 4.648438 -3.351562 4.421875 -3.59375 C 4.191406 -3.832031 3.882812 -3.953125 3.5 -3.953125 C 3.144531 -3.953125 2.851562 -3.835938 2.625 -3.609375 C 2.394531 -3.378906 2.28125 -3.082031 2.28125 -2.71875 C 2.28125 -2.351562 2.394531 -2.054688 2.625 -1.828125 C 2.851562 -1.609375 3.148438 -1.5 3.515625 -1.5 Z M 3.515625 -1.5 "/></g></g></g><g fill="#d9d9d9" fill-opacity="1"><g transform="translate(92.315199, 9.446102)"><g><path d="M 6.921875 -2.703125 C 6.921875 -1.890625 6.65625 -1.203125 6.125 -0.640625 C 5.601562 -0.0859375 4.960938 0.1875 4.203125 0.1875 C 3.847656 0.1875 3.523438 0.125 3.234375 0 C 2.953125 -0.125 2.707031 -0.296875 2.5 -0.515625 L 2.5 2.71875 L 0.578125 2.71875 L 0.578125 -5.453125 L 2.5 -5.453125 L 2.5 -4.828125 L 2.53125 -4.828125 C 2.6875 -5.085938 2.914062 -5.285156 3.21875 -5.421875 C 3.519531 -5.554688 3.84375 -5.625 4.1875 -5.625 C 4.957031 -5.625 5.601562 -5.34375 6.125 -4.78125 C 6.65625 -4.21875 6.921875 -3.523438 6.921875 -2.703125 Z M 3.6875 -1.5 C 4.070312 -1.5 4.375 -1.609375 4.59375 -1.828125 C 4.820312 -2.054688 4.9375 -2.351562 4.9375 -2.71875 C 4.925781 -3.070312 4.804688 -3.363281 4.578125 -3.59375 C 4.347656 -3.820312 4.046875 -3.941406 3.671875 -3.953125 C 3.316406 -3.953125 3.019531 -3.835938 2.78125 -3.609375 C 2.550781 -3.378906 2.4375 -3.082031 2.4375 -2.71875 C 2.4375 -2.351562 2.550781 -2.054688 2.78125 -1.828125 C 3.019531 -1.609375 3.320312 -1.5 3.6875 -1.5 Z M 3.6875 -1.5 "/></g></g></g><g fill="#d9d9d9" fill-opacity="1"><g transform="translate(99.558202, 9.446102)"><g><path d="M 3.109375 -5.625 C 3.773438 -5.625 4.367188 -5.507812 4.890625 -5.28125 L 4.234375 -4.046875 C 3.898438 -4.222656 3.554688 -4.3125 3.203125 -4.3125 C 3.035156 -4.3125 2.890625 -4.273438 2.765625 -4.203125 C 2.648438 -4.140625 2.59375 -4.050781 2.59375 -3.9375 C 2.59375 -3.726562 2.785156 -3.59375 3.171875 -3.53125 L 3.46875 -3.46875 C 4.519531 -3.269531 5.046875 -2.726562 5.046875 -1.84375 C 5.046875 -1.21875 4.8125 -0.722656 4.34375 -0.359375 C 3.875 -0.00390625 3.25 0.175781 2.46875 0.1875 C 1.695312 0.1875 0.96875 -0.0234375 0.28125 -0.453125 L 0.984375 -1.796875 C 1.148438 -1.660156 1.382812 -1.535156 1.6875 -1.421875 C 2 -1.304688 2.269531 -1.25 2.5 -1.25 C 2.65625 -1.25 2.796875 -1.285156 2.921875 -1.359375 C 3.046875 -1.429688 3.109375 -1.53125 3.109375 -1.65625 C 3.109375 -1.78125 3.046875 -1.878906 2.921875 -1.953125 C 2.804688 -2.035156 2.609375 -2.109375 2.328125 -2.171875 C 1.671875 -2.296875 1.234375 -2.476562 1.015625 -2.71875 C 0.796875 -2.957031 0.6875 -3.285156 0.6875 -3.703125 C 0.6875 -4.273438 0.910156 -4.738281 1.359375 -5.09375 C 1.804688 -5.445312 2.390625 -5.625 3.109375 -5.625 Z M 3.109375 -5.625 "/></g></g></g><g fill="#d9d9d9" fill-opacity="1"><g transform="translate(105.006382, 9.446102)"><g><path d="M 3.4375 -2.03125 L 1.484375 1.5 L 0.234375 1.5 L 1.609375 -2.03125 Z M 3.4375 -2.03125 "/></g></g></g><g fill="#d9d9d9" fill-opacity="1"><g transform="translate(108.64912, 9.446102)"><g/></g></g><g fill="#d9d9d9" fill-opacity="1"><g transform="translate(112.291858, 9.446102)"><g><path d="M 6.5625 -6.046875 C 6.5625 -5.640625 6.445312 -5.28125 6.21875 -4.96875 C 6 -4.664062 5.617188 -4.382812 5.078125 -4.125 L 6.09375 -3.0625 C 6.53125 -3.457031 6.878906 -3.835938 7.140625 -4.203125 L 8.3125 -3.078125 L 7.21875 -1.890625 L 9.015625 0 L 6.40625 0 L 5.71875 -0.75 C 4.78125 -0.101562 3.863281 0.21875 2.96875 0.21875 C 2.207031 0.21875 1.585938 0.00390625 1.109375 -0.421875 C 0.640625 -0.859375 0.40625 -1.410156 0.40625 -2.078125 C 0.40625 -2.617188 0.550781 -3.066406 0.84375 -3.421875 C 1.132812 -3.785156 1.625 -4.113281 2.3125 -4.40625 L 1.921875 -4.9375 C 1.691406 -5.257812 1.578125 -5.625 1.578125 -6.03125 C 1.578125 -6.664062 1.8125 -7.1875 2.28125 -7.59375 C 2.757812 -8.007812 3.351562 -8.21875 4.0625 -8.21875 C 4.757812 -8.21875 5.347656 -8.007812 5.828125 -7.59375 C 6.316406 -7.1875 6.5625 -6.671875 6.5625 -6.046875 Z M 4.171875 -5.09375 C 4.671875 -5.375 4.921875 -5.695312 4.921875 -6.0625 C 4.921875 -6.28125 4.851562 -6.457031 4.71875 -6.59375 C 4.59375 -6.738281 4.421875 -6.8125 4.203125 -6.8125 C 4.023438 -6.8125 3.867188 -6.75 3.734375 -6.625 C 3.609375 -6.5 3.546875 -6.34375 3.546875 -6.15625 C 3.546875 -5.894531 3.753906 -5.539062 4.171875 -5.09375 Z M 3.46875 -1.65625 C 3.832031 -1.65625 4.203125 -1.765625 4.578125 -1.984375 L 3.3125 -3.34375 C 2.8125 -3.03125 2.5625 -2.710938 2.5625 -2.390625 C 2.5625 -2.179688 2.648438 -2.003906 2.828125 -1.859375 C 3.003906 -1.722656 3.21875 -1.65625 3.46875 -1.65625 Z M 3.46875 -1.65625 "/></g></g></g><g fill="#d9d9d9" fill-opacity="1"><g transform="translate(121.297815, 9.446102)"><g/></g></g><g fill="#d9d9d9" fill-opacity="1"><g transform="translate(124.685634, 9.446102)"><g><path d="M 4.625 -8.28125 C 6.320312 -8.28125 7.523438 -7.53125 8.234375 -6.03125 L 6.265625 -5.203125 C 6.109375 -5.609375 5.878906 -5.921875 5.578125 -6.140625 C 5.273438 -6.367188 4.925781 -6.484375 4.53125 -6.484375 C 3.914062 -6.484375 3.410156 -6.238281 3.015625 -5.75 C 2.628906 -5.257812 2.4375 -4.660156 2.4375 -3.953125 C 2.4375 -3.515625 2.523438 -3.101562 2.703125 -2.71875 C 2.878906 -2.332031 3.125 -2.019531 3.4375 -1.78125 C 3.757812 -1.550781 4.132812 -1.4375 4.5625 -1.4375 C 5.050781 -1.4375 5.441406 -1.5625 5.734375 -1.8125 C 6.023438 -2.0625 6.191406 -2.40625 6.234375 -2.84375 L 4.53125 -2.84375 L 4.53125 -4.46875 L 8.671875 -4.46875 C 8.660156 -3.476562 8.546875 -2.71875 8.328125 -2.1875 C 8.117188 -1.65625 7.820312 -1.203125 7.4375 -0.828125 C 7.0625 -0.453125 6.628906 -0.175781 6.140625 0 C 5.660156 0.175781 5.128906 0.265625 4.546875 0.265625 C 3.273438 0.265625 2.242188 -0.125 1.453125 -0.90625 C 0.671875 -1.695312 0.28125 -2.71875 0.28125 -3.96875 C 0.28125 -5.25 0.675781 -6.285156 1.46875 -7.078125 C 2.257812 -7.878906 3.3125 -8.28125 4.625 -8.28125 Z M 4.625 -8.28125 "/></g></g></g><g clip-path="url(#e9d860ecba)"><g fill="#d9d9d9" fill-opacity="1"><g transform="translate(133.627878, 9.446102)"><g><path d="M 2.6875 -7.546875 C 2.6875 -7.242188 2.578125 -6.984375 2.359375 -6.765625 C 2.148438 -6.554688 1.898438 -6.453125 1.609375 -6.453125 C 1.304688 -6.453125 1.046875 -6.5625 0.828125 -6.78125 C 0.617188 -7 0.515625 -7.253906 0.515625 -7.546875 C 0.515625 -7.859375 0.625 -8.113281 0.84375 -8.3125 C 1.0625 -8.519531 1.316406 -8.625 1.609375 -8.625 C 1.898438 -8.625 2.148438 -8.519531 2.359375 -8.3125 C 2.578125 -8.101562 2.6875 -7.847656 2.6875 -7.546875 Z M 2.578125 -5.453125 L 2.578125 0 L 0.640625 0 L 0.640625 -5.453125 Z M 2.578125 -5.453125 "/></g></g></g></g><g fill="#d9d9d9" fill-opacity="1"><g transform="translate(136.835184, 9.446102)"><g><path d="M 2.015625 -5.453125 L 3.3125 -2.65625 L 4.609375 -5.453125 L 6.78125 -5.453125 L 3.9375 0 L 2.703125 0 L -0.15625 -5.453125 Z M 2.015625 -5.453125 "/></g></g></g><g fill="#d9d9d9" fill-opacity="1"><g transform="translate(143.451592, 9.446102)"><g><path d="M 2.171875 -2.40625 C 2.171875 -1.59375 2.570312 -1.1875 3.375 -1.1875 C 3.789062 -1.1875 4.097656 -1.351562 4.296875 -1.6875 L 6.15625 -1.6875 C 6.03125 -1.125 5.71875 -0.671875 5.21875 -0.328125 C 4.71875 0.015625 4.101562 0.1875 3.375 0.1875 C 2.414062 0.1875 1.648438 -0.078125 1.078125 -0.609375 C 0.515625 -1.140625 0.234375 -1.84375 0.234375 -2.71875 C 0.234375 -3.601562 0.503906 -4.304688 1.046875 -4.828125 C 1.597656 -5.359375 2.332031 -5.625 3.25 -5.625 C 4.1875 -5.625 4.914062 -5.351562 5.4375 -4.8125 C 5.96875 -4.269531 6.234375 -3.519531 6.234375 -2.5625 L 6.234375 -2.40625 Z M 4.4375 -3.515625 C 4.382812 -3.785156 4.253906 -3.992188 4.046875 -4.140625 C 3.835938 -4.296875 3.601562 -4.375 3.34375 -4.375 C 3.050781 -4.375 2.800781 -4.300781 2.59375 -4.15625 C 2.382812 -4.007812 2.253906 -3.796875 2.203125 -3.515625 Z M 4.4375 -3.515625 "/></g></g></g><g fill="#d9d9d9" fill-opacity="1"><g transform="translate(149.929939, 9.446102)"><g><path d="M 4.671875 -5.453125 L 6.59375 -5.453125 L 6.59375 0 L 4.671875 0 L 4.671875 -0.609375 L 4.640625 -0.609375 C 4.304688 -0.0976562 3.757812 0.164062 3 0.1875 C 2.226562 0.1875 1.578125 -0.0859375 1.046875 -0.640625 C 0.515625 -1.203125 0.25 -1.898438 0.25 -2.734375 C 0.25 -3.554688 0.515625 -4.242188 1.046875 -4.796875 C 1.578125 -5.347656 2.21875 -5.625 2.96875 -5.625 C 3.675781 -5.613281 4.242188 -5.378906 4.671875 -4.921875 Z M 3.484375 -1.5 C 3.847656 -1.5 4.144531 -1.601562 4.375 -1.8125 C 4.613281 -2.03125 4.734375 -2.332031 4.734375 -2.71875 C 4.734375 -3.082031 4.617188 -3.378906 4.390625 -3.609375 C 4.160156 -3.835938 3.851562 -3.953125 3.46875 -3.953125 C 3.113281 -3.953125 2.816406 -3.835938 2.578125 -3.609375 C 2.347656 -3.378906 2.234375 -3.082031 2.234375 -2.71875 C 2.234375 -2.351562 2.347656 -2.054688 2.578125 -1.828125 C 2.816406 -1.609375 3.117188 -1.5 3.484375 -1.5 Z M 3.484375 -1.5 "/></g></g></g><g fill="#d9d9d9" fill-opacity="1"><g transform="translate(157.172934, 9.446102)"><g><path d="M 1.984375 -5.453125 L 3.34375 -2.5 L 4.71875 -5.453125 L 5.859375 -5.453125 L 7.234375 -2.5 L 8.609375 -5.453125 L 10.734375 -5.453125 L 7.890625 0 L 6.640625 0 L 5.296875 -2.984375 L 3.9375 0 L 2.6875 0 L -0.15625 -5.453125 Z M 1.984375 -5.453125 "/></g></g></g><g fill="#d9d9d9" fill-opacity="1"><g transform="translate(167.750691, 9.446102)"><g><path d="M 4.671875 -5.453125 L 6.59375 -5.453125 L 6.59375 0 L 4.671875 0 L 4.671875 -0.609375 L 4.640625 -0.609375 C 4.304688 -0.0976562 3.757812 0.164062 3 0.1875 C 2.226562 0.1875 1.578125 -0.0859375 1.046875 -0.640625 C 0.515625 -1.203125 0.25 -1.898438 0.25 -2.734375 C 0.25 -3.554688 0.515625 -4.242188 1.046875 -4.796875 C 1.578125 -5.347656 2.21875 -5.625 2.96875 -5.625 C 3.675781 -5.613281 4.242188 -5.378906 4.671875 -4.921875 Z M 3.484375 -1.5 C 3.847656 -1.5 4.144531 -1.601562 4.375 -1.8125 C 4.613281 -2.03125 4.734375 -2.332031 4.734375 -2.71875 C 4.734375 -3.082031 4.617188 -3.378906 4.390625 -3.609375 C 4.160156 -3.835938 3.851562 -3.953125 3.46875 -3.953125 C 3.113281 -3.953125 2.816406 -3.835938 2.578125 -3.609375 C 2.347656 -3.378906 2.234375 -3.082031 2.234375 -2.71875 C 2.234375 -2.351562 2.347656 -2.054688 2.578125 -1.828125 C 2.816406 -1.609375 3.117188 -1.5 3.484375 -1.5 Z M 3.484375 -1.5 "/></g></g></g><g fill="#d9d9d9" fill-opacity="1"><g transform="translate(174.993701, 9.446102)"><g><path d="M 2.078125 -5.453125 L 3.53125 -2.65625 L 4.953125 -5.453125 L 7.15625 -5.453125 L 2.78125 2.71875 L 0.609375 2.71875 L 2.46875 -0.75 L -0.15625 -5.453125 Z M 2.078125 -5.453125 "/></g></g></g><g fill="#d9d9d9" fill-opacity="1"><g transform="translate(181.939333, 9.446102)"><g><path d="M 3.109375 -5.625 C 3.773438 -5.625 4.367188 -5.507812 4.890625 -5.28125 L 4.234375 -4.046875 C 3.898438 -4.222656 3.554688 -4.3125 3.203125 -4.3125 C 3.035156 -4.3125 2.890625 -4.273438 2.765625 -4.203125 C 2.648438 -4.140625 2.59375 -4.050781 2.59375 -3.9375 C 2.59375 -3.726562 2.785156 -3.59375 3.171875 -3.53125 L 3.46875 -3.46875 C 4.519531 -3.269531 5.046875 -2.726562 5.046875 -1.84375 C 5.046875 -1.21875 4.8125 -0.722656 4.34375 -0.359375 C 3.875 -0.00390625 3.25 0.175781 2.46875 0.1875 C 1.695312 0.1875 0.96875 -0.0234375 0.28125 -0.453125 L 0.984375 -1.796875 C 1.148438 -1.660156 1.382812 -1.535156 1.6875 -1.421875 C 2 -1.304688 2.269531 -1.25 2.5 -1.25 C 2.65625 -1.25 2.796875 -1.285156 2.921875 -1.359375 C 3.046875 -1.429688 3.109375 -1.53125 3.109375 -1.65625 C 3.109375 -1.78125 3.046875 -1.878906 2.921875 -1.953125 C 2.804688 -2.035156 2.609375 -2.109375 2.328125 -2.171875 C 1.671875 -2.296875 1.234375 -2.476562 1.015625 -2.71875 C 0.796875 -2.957031 0.6875 -3.285156 0.6875 -3.703125 C 0.6875 -4.273438 0.910156 -4.738281 1.359375 -5.09375 C 1.804688 -5.445312 2.390625 -5.625 3.109375 -5.625 Z M 3.109375 -5.625 "/></g></g></g><g fill="#d9d9d9" fill-opacity="1"><g transform="translate(81.68996, 25.809566)"><g><path d="M 6.703125 -5.484375 C 6.703125 -5.222656 6.671875 -4.972656 6.609375 -4.734375 C 6.554688 -4.503906 6.484375 -4.296875 6.390625 -4.109375 C 6.304688 -3.921875 6.175781 -3.726562 6 -3.53125 C 5.832031 -3.332031 5.222656 -2.742188 4.171875 -1.765625 L 6.796875 -1.765625 L 6.796875 0 L 0.34375 0 L 3.625 -3.5625 C 3.894531 -3.851562 4.113281 -4.171875 4.28125 -4.515625 C 4.445312 -4.867188 4.53125 -5.207031 4.53125 -5.53125 C 4.53125 -5.8125 4.4375 -6.050781 4.25 -6.25 C 4.070312 -6.457031 3.863281 -6.5625 3.625 -6.5625 C 3.363281 -6.5625 3.148438 -6.472656 2.984375 -6.296875 C 2.828125 -6.117188 2.75 -5.882812 2.75 -5.59375 L 2.78125 -5.25 L 0.484375 -5.25 C 0.515625 -6.175781 0.8125 -6.921875 1.375 -7.484375 C 1.9375 -8.046875 2.679688 -8.328125 3.609375 -8.328125 C 4.503906 -8.328125 5.242188 -8.054688 5.828125 -7.515625 C 6.410156 -6.984375 6.703125 -6.304688 6.703125 -5.484375 Z M 6.703125 -5.484375 "/></g></g></g><g fill="#d9d9d9" fill-opacity="1"><g transform="translate(88.975443, 25.809566)"><g><path d="M 7.046875 -4 C 7.046875 -2.726562 6.734375 -1.691406 6.109375 -0.890625 C 5.492188 -0.0859375 4.671875 0.3125 3.640625 0.3125 C 2.617188 0.3125 1.796875 -0.0859375 1.171875 -0.890625 C 0.554688 -1.691406 0.25 -2.726562 0.25 -4 C 0.25 -5.257812 0.554688 -6.296875 1.171875 -7.109375 C 1.796875 -7.921875 2.617188 -8.328125 3.640625 -8.328125 C 4.335938 -8.328125 4.941406 -8.132812 5.453125 -7.75 C 5.972656 -7.375 6.367188 -6.851562 6.640625 -6.1875 C 6.910156 -5.53125 7.046875 -4.800781 7.046875 -4 Z M 3.640625 -1.515625 C 4.035156 -1.515625 4.351562 -1.75 4.59375 -2.21875 C 4.84375 -2.695312 4.96875 -3.296875 4.96875 -4.015625 C 4.96875 -4.710938 4.84375 -5.296875 4.59375 -5.765625 C 4.351562 -6.242188 4.035156 -6.484375 3.640625 -6.484375 C 3.378906 -6.484375 3.148438 -6.378906 2.953125 -6.171875 C 2.753906 -5.960938 2.597656 -5.65625 2.484375 -5.25 C 2.367188 -4.84375 2.3125 -4.429688 2.3125 -4.015625 C 2.3125 -3.316406 2.429688 -2.722656 2.671875 -2.234375 C 2.910156 -1.753906 3.234375 -1.515625 3.640625 -1.515625 Z M 3.640625 -1.515625 "/></g></g></g><g fill="#d9d9d9" fill-opacity="1"><g transform="translate(96.260926, 25.809566)"><g><path d="M 4.578125 -6.171875 C 4.578125 -5.566406 4.375 -5.085938 3.96875 -4.734375 C 3.570312 -4.378906 3.046875 -4.203125 2.390625 -4.203125 C 1.710938 -4.203125 1.175781 -4.378906 0.78125 -4.734375 C 0.394531 -5.097656 0.203125 -5.578125 0.203125 -6.171875 C 0.203125 -6.765625 0.398438 -7.238281 0.796875 -7.59375 C 1.203125 -7.945312 1.734375 -8.125 2.390625 -8.125 C 3.023438 -8.125 3.546875 -7.945312 3.953125 -7.59375 C 4.367188 -7.25 4.578125 -6.773438 4.578125 -6.171875 Z M 8.015625 -8.015625 L 3.375 0 L 2.328125 0 L 6.984375 -8.015625 Z M 2.390625 -5.265625 C 2.628906 -5.265625 2.835938 -5.347656 3.015625 -5.515625 C 3.203125 -5.679688 3.296875 -5.894531 3.296875 -6.15625 C 3.296875 -6.40625 3.207031 -6.617188 3.03125 -6.796875 C 2.851562 -6.972656 2.640625 -7.0625 2.390625 -7.0625 C 2.140625 -7.0625 1.925781 -6.972656 1.75 -6.796875 C 1.570312 -6.617188 1.484375 -6.40625 1.484375 -6.15625 C 1.484375 -5.894531 1.570312 -5.679688 1.75 -5.515625 C 1.9375 -5.347656 2.148438 -5.265625 2.390625 -5.265625 Z M 10.15625 -1.875 C 10.15625 -1.257812 9.957031 -0.773438 9.5625 -0.421875 C 9.164062 -0.0664062 8.632812 0.109375 7.96875 0.109375 C 7.289062 0.109375 6.753906 -0.0703125 6.359375 -0.4375 C 5.972656 -0.800781 5.78125 -1.28125 5.78125 -1.875 C 5.78125 -2.4375 5.972656 -2.898438 6.359375 -3.265625 C 6.753906 -3.628906 7.289062 -3.8125 7.96875 -3.8125 C 8.601562 -3.8125 9.125 -3.632812 9.53125 -3.28125 C 9.945312 -2.9375 10.15625 -2.46875 10.15625 -1.875 Z M 7.96875 -0.953125 C 8.207031 -0.953125 8.414062 -1.035156 8.59375 -1.203125 C 8.78125 -1.378906 8.875 -1.59375 8.875 -1.84375 C 8.875 -2.09375 8.785156 -2.304688 8.609375 -2.484375 C 8.429688 -2.660156 8.21875 -2.75 7.96875 -2.75 C 7.71875 -2.75 7.503906 -2.660156 7.328125 -2.484375 C 7.148438 -2.304688 7.0625 -2.09375 7.0625 -1.84375 C 7.0625 -1.59375 7.148438 -1.378906 7.328125 -1.203125 C 7.515625 -1.035156 7.726562 -0.953125 7.96875 -0.953125 Z M 7.96875 -0.953125 "/></g></g></g><g fill="#d9d9d9" fill-opacity="1"><g transform="translate(142.885529, 312.330324)"><g><path d="M 5.59375 -8.015625 L 5.59375 -6.25 L 3.875 -6.25 L 3.875 0 L 1.78125 0 L 1.78125 -6.25 L 0.0625 -6.25 L 0.0625 -8.015625 Z M 5.59375 -8.015625 "/></g></g></g><g fill="#d9d9d9" fill-opacity="1"><g transform="translate(147.908812, 312.330324)"><g><path d="M 2.171875 -2.40625 C 2.171875 -1.59375 2.570312 -1.1875 3.375 -1.1875 C 3.789062 -1.1875 4.097656 -1.351562 4.296875 -1.6875 L 6.15625 -1.6875 C 6.03125 -1.125 5.71875 -0.671875 5.21875 -0.328125 C 4.71875 0.015625 4.101562 0.1875 3.375 0.1875 C 2.414062 0.1875 1.648438 -0.078125 1.078125 -0.609375 C 0.515625 -1.140625 0.234375 -1.84375 0.234375 -2.71875 C 0.234375 -3.601562 0.503906 -4.304688 1.046875 -4.828125 C 1.597656 -5.359375 2.332031 -5.625 3.25 -5.625 C 4.1875 -5.625 4.914062 -5.351562 5.4375 -4.8125 C 5.96875 -4.269531 6.234375 -3.519531 6.234375 -2.5625 L 6.234375 -2.40625 Z M 4.4375 -3.515625 C 4.382812 -3.785156 4.253906 -3.992188 4.046875 -4.140625 C 3.835938 -4.296875 3.601562 -4.375 3.34375 -4.375 C 3.050781 -4.375 2.800781 -4.300781 2.59375 -4.15625 C 2.382812 -4.007812 2.253906 -3.796875 2.203125 -3.515625 Z M 4.4375 -3.515625 "/></g></g></g><g fill="#d9d9d9" fill-opacity="1"><g transform="translate(154.387159, 312.330324)"><g><path d="M 4.671875 -5.453125 L 6.59375 -5.453125 L 6.59375 0 L 4.671875 0 L 4.671875 -0.609375 L 4.640625 -0.609375 C 4.304688 -0.0976562 3.757812 0.164062 3 0.1875 C 2.226562 0.1875 1.578125 -0.0859375 1.046875 -0.640625 C 0.515625 -1.203125 0.25 -1.898438 0.25 -2.734375 C 0.25 -3.554688 0.515625 -4.242188 1.046875 -4.796875 C 1.578125 -5.347656 2.21875 -5.625 2.96875 -5.625 C 3.675781 -5.613281 4.242188 -5.378906 4.671875 -4.921875 Z M 3.484375 -1.5 C 3.847656 -1.5 4.144531 -1.601562 4.375 -1.8125 C 4.613281 -2.03125 4.734375 -2.332031 4.734375 -2.71875 C 4.734375 -3.082031 4.617188 -3.378906 4.390625 -3.609375 C 4.160156 -3.835938 3.851562 -3.953125 3.46875 -3.953125 C 3.113281 -3.953125 2.816406 -3.835938 2.578125 -3.609375 C 2.347656 -3.378906 2.234375 -3.082031 2.234375 -2.71875 C 2.234375 -2.351562 2.347656 -2.054688 2.578125 -1.828125 C 2.816406 -1.609375 3.117188 -1.5 3.484375 -1.5 Z M 3.484375 -1.5 "/></g></g></g><g fill="#d9d9d9" fill-opacity="1"><g transform="translate(161.630162, 312.330324)"><g><path d="M 6.171875 -4.59375 C 6.378906 -4.925781 6.644531 -5.179688 6.96875 -5.359375 C 7.289062 -5.535156 7.640625 -5.625 8.015625 -5.625 C 9.253906 -5.625 9.875 -4.925781 9.875 -3.53125 L 9.875 0 L 7.953125 0 L 7.953125 -2.84375 C 7.953125 -3.675781 7.6875 -4.09375 7.15625 -4.09375 C 6.84375 -4.09375 6.609375 -3.988281 6.453125 -3.78125 C 6.296875 -3.570312 6.21875 -3.203125 6.21875 -2.671875 L 6.21875 0 L 4.296875 0 L 4.296875 -2.671875 C 4.296875 -3.222656 4.222656 -3.601562 4.078125 -3.8125 C 3.941406 -4.03125 3.726562 -4.140625 3.4375 -4.140625 C 3.144531 -4.140625 2.925781 -4.03125 2.78125 -3.8125 C 2.644531 -3.601562 2.578125 -3.222656 2.578125 -2.671875 L 2.578125 0 L 0.640625 0 L 0.640625 -5.453125 L 2.578125 -5.453125 L 2.578125 -4.765625 L 2.59375 -4.765625 C 3.03125 -5.335938 3.601562 -5.625 4.3125 -5.625 C 5.164062 -5.613281 5.785156 -5.269531 6.171875 -4.59375 Z M 6.171875 -4.59375 "/></g></g></g><g fill="#d9d9d9" fill-opacity="1"><g transform="translate(144.115701, 325.891329)"><g><path d="M 4.9375 -8.015625 L 4.9375 0 L 2.859375 0 L 2.859375 -6.25 L 1.703125 -6.25 L 1.703125 -8.015625 Z M 4.9375 -8.015625 "/></g></g></g><g fill="#d9d9d9" fill-opacity="1"><g transform="translate(151.401184, 325.891329)"><g><path d="M 7.046875 -4 C 7.046875 -2.726562 6.734375 -1.691406 6.109375 -0.890625 C 5.492188 -0.0859375 4.671875 0.3125 3.640625 0.3125 C 2.617188 0.3125 1.796875 -0.0859375 1.171875 -0.890625 C 0.554688 -1.691406 0.25 -2.726562 0.25 -4 C 0.25 -5.257812 0.554688 -6.296875 1.171875 -7.109375 C 1.796875 -7.921875 2.617188 -8.328125 3.640625 -8.328125 C 4.335938 -8.328125 4.941406 -8.132812 5.453125 -7.75 C 5.972656 -7.375 6.367188 -6.851562 6.640625 -6.1875 C 6.910156 -5.53125 7.046875 -4.800781 7.046875 -4 Z M 3.640625 -1.515625 C 4.035156 -1.515625 4.351562 -1.75 4.59375 -2.21875 C 4.84375 -2.695312 4.96875 -3.296875 4.96875 -4.015625 C 4.96875 -4.710938 4.84375 -5.296875 4.59375 -5.765625 C 4.351562 -6.242188 4.035156 -6.484375 3.640625 -6.484375 C 3.378906 -6.484375 3.148438 -6.378906 2.953125 -6.171875 C 2.753906 -5.960938 2.597656 -5.65625 2.484375 -5.25 C 2.367188 -4.84375 2.3125 -4.429688 2.3125 -4.015625 C 2.3125 -3.316406 2.429688 -2.722656 2.671875 -2.234375 C 2.910156 -1.753906 3.234375 -1.515625 3.640625 -1.515625 Z M 3.640625 -1.515625 "/></g></g></g><g fill="#d9d9d9" fill-opacity="1"><g transform="translate(158.686667, 325.891329)"><g><path d="M 4.578125 -6.171875 C 4.578125 -5.566406 4.375 -5.085938 3.96875 -4.734375 C 3.570312 -4.378906 3.046875 -4.203125 2.390625 -4.203125 C 1.710938 -4.203125 1.175781 -4.378906 0.78125 -4.734375 C 0.394531 -5.097656 0.203125 -5.578125 0.203125 -6.171875 C 0.203125 -6.765625 0.398438 -7.238281 0.796875 -7.59375 C 1.203125 -7.945312 1.734375 -8.125 2.390625 -8.125 C 3.023438 -8.125 3.546875 -7.945312 3.953125 -7.59375 C 4.367188 -7.25 4.578125 -6.773438 4.578125 -6.171875 Z M 8.015625 -8.015625 L 3.375 0 L 2.328125 0 L 6.984375 -8.015625 Z M 2.390625 -5.265625 C 2.628906 -5.265625 2.835938 -5.347656 3.015625 -5.515625 C 3.203125 -5.679688 3.296875 -5.894531 3.296875 -6.15625 C 3.296875 -6.40625 3.207031 -6.617188 3.03125 -6.796875 C 2.851562 -6.972656 2.640625 -7.0625 2.390625 -7.0625 C 2.140625 -7.0625 1.925781 -6.972656 1.75 -6.796875 C 1.570312 -6.617188 1.484375 -6.40625 1.484375 -6.15625 C 1.484375 -5.894531 1.570312 -5.679688 1.75 -5.515625 C 1.9375 -5.347656 2.148438 -5.265625 2.390625 -5.265625 Z M 10.15625 -1.875 C 10.15625 -1.257812 9.957031 -0.773438 9.5625 -0.421875 C 9.164062 -0.0664062 8.632812 0.109375 7.96875 0.109375 C 7.289062 0.109375 6.753906 -0.0703125 6.359375 -0.4375 C 5.972656 -0.800781 5.78125 -1.28125 5.78125 -1.875 C 5.78125 -2.4375 5.972656 -2.898438 6.359375 -3.265625 C 6.753906 -3.628906 7.289062 -3.8125 7.96875 -3.8125 C 8.601562 -3.8125 9.125 -3.632812 9.53125 -3.28125 C 9.945312 -2.9375 10.15625 -2.46875 10.15625 -1.875 Z M 7.96875 -0.953125 C 8.207031 -0.953125 8.414062 -1.035156 8.59375 -1.203125 C 8.78125 -1.378906 8.875 -1.59375 8.875 -1.84375 C 8.875 -2.09375 8.785156 -2.304688 8.609375 -2.484375 C 8.429688 -2.660156 8.21875 -2.75 7.96875 -2.75 C 7.71875 -2.75 7.503906 -2.660156 7.328125 -2.484375 C 7.148438 -2.304688 7.0625 -2.09375 7.0625 -1.84375 C 7.0625 -1.59375 7.148438 -1.378906 7.328125 -1.203125 C 7.515625 -1.035156 7.726562 -0.953125 7.96875 -0.953125 Z M 7.96875 -0.953125 "/></g></g></g></g></g></g></svg>